<svg t="1693099933402" class="icon" viewBox="0 0 1024 1024" version="1.1" xmlns="http://www.w3.org/2000/svg" p-id="1082" width="200" height="200"><path d="M512 924.9c-55.7 0-109.8-10.9-160.7-32.5-49.2-20.8-93.3-50.6-131.2-88.5s-67.7-82.1-88.5-131.2C110 621.8 99.1 567.7 99.1 512c0-55.7 10.9-109.8 32.5-160.7 20.8-49.2 50.6-93.3 88.5-131.2s82.1-67.7 131.2-88.5c50.9-21.5 105-32.5 160.7-32.5s109.8 10.9 160.7 32.5c49.2 20.8 93.3 50.6 131.2 88.5s67.7 82.1 88.5 131.2c21.5 50.9 32.5 105 32.5 160.7 0 55.7-10.9 109.8-32.5 160.7-20.8 49.2-50.6 93.3-88.5 131.2s-82.1 67.7-131.2 88.5c-50.9 21.6-105 32.5-160.7 32.5z m0-765.8c-94.3 0-182.9 36.7-249.5 103.4-66.7 66.6-103.4 155.2-103.4 249.5 0 94.3 36.7 182.9 103.4 249.5S417.8 864.9 512 864.9c94.3 0 182.9-36.7 249.5-103.4S864.9 606.3 864.9 512c0-94.3-36.7-182.9-103.4-249.5S606.3 159.1 512 159.1z" p-id="1083"></path></svg>