<svg t="1693098550021" class="icon" viewBox="0 0 1024 1024" version="1.1" xmlns="http://www.w3.org/2000/svg" p-id="2751" width="200" height="200"><path d="M658.016 249.632v96.176c0 7.528-0.576 15.068-1.68 22.548 2.156 0.26 4.332 0.452 6.56 0.452 32.988 0 59.728-26.744 59.728-59.728 0-35.02-29.98-62.324-64.608-59.448zM363.284 345.804V249.552a59.64 59.64 0 0 0-4.88-0.204c-32.988 0-59.732 26.744-59.732 59.728s26.744 59.728 59.732 59.728c2.228 0 4.404-0.192 6.56-0.452a155.012 155.012 0 0 1-1.68-22.548z" fill="#F9D8B7" p-id="2752"></path><path d="M747.24 90.7L513.576 10.552a10.152 10.152 0 0 0-6.604 0L273.308 90.7c-9.168 3.144-9.168 16.112 0 19.256l233.664 80.148a10.152 10.152 0 0 0 6.604 0l233.664-80.148c9.168-3.144 9.168-16.112 0-19.256z" fill="#515050" p-id="2753"></path><path d="M363.284 226.616v119.188c0 81.052 66.316 163.216 147.364 163.216 81.052 0 147.364-82.164 147.364-163.216V226.616H363.284z" fill="#F9D8B7" p-id="2754"></path><path d="M513.576 190.104a10.152 10.152 0 0 1-6.604 0L337.044 131.82v72.656a22.136 22.136 0 0 0 22.144 22.136c196.104-0.052 272.496 0.028 302.944 0.024a22.124 22.124 0 0 0 22.12-22.136V131.56l-170.676 58.544z" fill="#3F3F3F" p-id="2755"></path><path d="M765.676 207.816a4.296 4.296 0 0 0-4.212-3.456h-23.62c-2.048 0-3.812 1.448-4.212 3.456l-7.448 37.244a3.188 3.188 0 0 0 3.128 3.816H770c2.012 0 3.524-1.84 3.128-3.816l-7.452-37.244z" fill="#FCBD4C" p-id="2756"></path><path d="M359.188 226.612a22.128 22.128 0 0 1-21.444-16.7 302.12 302.12 0 0 0-9.376 47.592 59.368 59.368 0 0 1 34.916-7.956v-22.932l-4.096-0.004zM692.14 257.124a302.08 302.08 0 0 0-8.948-45.856 22.12 22.12 0 0 1-21.06 15.368h-4.12v22.996a59.248 59.248 0 0 1 34.128 7.492z" fill="#E8B16D" p-id="2757"></path><path d="M827.452 986.772l-18.84-338.264a58.456 58.456 0 0 0-44.1-53.44c-76.364-19.572-83.592-20.24-113.04-29.644-3.18-1.016-6.384-1.956-9.548-3.032l-19.828-9.776-15.98-7.88-7.2-3.552a33.288 33.288 0 0 1-12.256-10.456 33.376 33.376 0 0 1-6.404-19.552v-23.384c-43.18 27.7-92.868 28.332-136.5 1.652v21.732c0 7.176-2.36 13.952-6.404 19.552a33.288 33.288 0 0 1-12.256 10.456l-23.18 11.428-17.756 8.756c-3.868 1.372-7.756 2.692-11.656 3.968-27.384 8.964-40.604 11.2-113.004 29.732a58.464 58.464 0 0 0-44.1 53.44l-18.84 338.268a25.792 25.792 0 0 0 25.752 27.224h579.4a25.792 25.792 0 0 0 25.74-27.228z" fill="#3F3F3F" p-id="2758"></path><path d="M512 850.652l-79.132-79.132v242.48h158.268v-242.48z" fill="#FCBD4C" p-id="2759"></path><path d="M512 850.652l-27.864-27.864V1014h55.728v-191.212z" fill="#F9D498" p-id="2760"></path><path d="M512 850.652l254.888-254.888c-0.792-0.236-1.568-0.5-2.376-0.7-76.364-19.572-83.592-20.24-113.04-29.644-3.184-1.016-6.384-1.956-9.548-3.032l-19.828-9.776-15.98-7.88-7.2-3.552a33.332 33.332 0 0 1-12.26-10.456 33.376 33.376 0 0 1-6.404-19.552v-23.384c-43.18 27.7-92.868 28.336-136.5 1.652v21.732c0 7.176-2.36 13.952-6.408 19.552a33.288 33.288 0 0 1-12.256 10.456l-23.18 11.428-17.756 8.756c-3.868 1.372-7.756 2.692-11.656 3.968-27.384 8.964-40.608 11.2-113.004 29.732-0.804 0.204-1.584 0.464-2.372 0.7L512 850.652z" fill="#30A9E5" p-id="2761"></path><path d="M512 762.18l184.276-184.28c-18.724-4.672-28.26-7.196-44.808-12.48-3.184-1.016-6.384-1.956-9.548-3.032l-19.828-9.776-15.98-7.88-7.2-3.552a33.332 33.332 0 0 1-12.26-10.456 33.376 33.376 0 0 1-6.404-19.552v-23.384c-43.18 27.7-92.868 28.336-136.5 1.652v21.732c0 7.176-2.36 13.952-6.408 19.552a33.288 33.288 0 0 1-12.256 10.456l-23.18 11.428-17.756 8.756c-3.868 1.372-7.756 2.692-11.656 3.968-15.12 4.948-25.94 7.852-44.764 12.572L512 762.18z" fill="#1B87C9" p-id="2762"></path><path d="M635.18 559.064l-13.084-6.452-15.98-7.88-7.2-3.552a32.2 32.2 0 0 1-6.416-4.212l-67.912 69.192 31.076 31.8a130.56 130.56 0 0 0 48.984-30.908 130.52 130.52 0 0 0 30.532-47.988zM425.088 541.184l-23.18 11.428-13.084 6.452a130.52 130.52 0 0 0 30.532 47.988 130.536 130.536 0 0 0 49.152 30.972l31.176-31.864-68.012-69.316a32.572 32.572 0 0 1-6.584 4.34z" fill="#E8E6E6" p-id="2763"></path><path d="M555.664 637.96l-30.956-31.672-0.476 0.172h-23.74l-0.832-0.276-31.156 31.84a131.556 131.556 0 0 0 87.16-0.064z" fill="#E04E36" p-id="2764"></path><path d="M524.756 606.268l-0.172-0.108 67.912-69.192a34.36 34.36 0 0 1-5.84-6.24 33.376 33.376 0 0 1-6.404-19.552v-23.384c-43.18 27.7-92.868 28.336-136.5 1.652v21.732c0 7.176-2.36 13.952-6.408 19.552a34.4 34.4 0 0 1-5.676 6.12l68.016 69.316-0.028 0.02 0.84 0.28h23.74l0.52-0.196z" fill="#F9D8B7" p-id="2765"></path><path d="M512 434.388a52.832 52.832 0 0 1-43.824-23.296 10.008 10.008 0 0 1 2.692-13.888 10.012 10.012 0 0 1 13.888 2.692c6.124 9.076 16.312 14.492 27.248 14.492s21.12-5.416 27.248-14.492a10.008 10.008 0 0 1 13.888-2.692 10.008 10.008 0 0 1 2.692 13.888A52.856 52.856 0 0 1 512 434.388zM712.768 1018.456a10 10 0 0 1-10-10v-219.092a10 10 0 1 1 20 0v219.092a10 10 0 0 1-10 10zM311.232 1018.456a10 10 0 0 1-10-10v-219.092a10 10 0 1 1 20 0v219.092a10 10 0 0 1-10 10zM461.236 336.188a12 12 0 0 1-12-12V322a12 12 0 1 1 24 0v2.188a12 12 0 0 1-12 12zM566.1 337.864a12 12 0 0 1-12-12v-2.188a12 12 0 1 1 24 0v2.188a12 12 0 0 1-12 12zM586.384 297.528c-1.584 0-3.196-0.38-4.692-1.18-2.508-1.332-8.264-2.68-15.476-2.68s-12.964 1.348-15.472 2.68a9.988 9.988 0 0 1-13.524-4.124 9.996 9.996 0 0 1 4.124-13.524c6-3.2 15.068-5.032 24.872-5.032 9.808 0 18.876 1.832 24.876 5.032a9.992 9.992 0 0 1 4.124 13.524 10.012 10.012 0 0 1-8.832 5.304zM477.948 297.528c-1.584 0-3.196-0.38-4.692-1.18-2.508-1.332-8.26-2.68-15.472-2.68s-12.968 1.348-15.476 2.68a9.988 9.988 0 0 1-13.524-4.124 9.996 9.996 0 0 1 4.124-13.524c6-3.2 15.068-5.032 24.876-5.032 9.804 0 18.872 1.832 24.872 5.032a10.004 10.004 0 1 1-4.708 18.828zM749.652 212.876a10 10 0 0 1-10-10V110h-231.356a10 10 0 1 1 0-20h241.356a10 10 0 0 1 10 10v102.876a10 10 0 0 1-10 10zM512 655.424c-37.668 0-73.084-14.668-99.716-41.304a139.76 139.76 0 0 1-32.868-51.656 10 10 0 0 1 4.98-12.372l13.084-6.448 0.08 0.156c1.32-0.848 2.588-1.472 3.48-1.916l19.64-9.68a23.156 23.156 0 0 0 8.556-7.336 23.284 23.284 0 0 0 4.512-13.696v-21.736a10.004 10.004 0 0 1 15.216-8.532c40.176 24.572 86.06 24.012 125.884-1.536a10.008 10.008 0 0 1 15.4 8.416v23.384c0 4.876 1.56 9.612 4.508 13.696a23.164 23.164 0 0 0 8.58 7.344l7.2 3.552-0.116 0.244 0.052 0.02 0.116-0.24c0.48 0.244 0.936 0.516 1.36 0.82 1.988 0.828 4.096 1.872 6.324 2.968l21.332 10.52a9.996 9.996 0 0 1 4.98 12.372 139.76 139.76 0 0 1-32.868 51.652c-26.632 26.64-62.048 41.308-99.716 41.308z m-110.436-91.492a120.032 120.032 0 0 0 24.864 36.048c22.86 22.86 53.248 35.444 85.576 35.444s62.716-12.584 85.576-35.444a119.984 119.984 0 0 0 24.864-36.048l-4.764-2.352-15.904-7.84-0.08-0.04-7.2-3.552a43.576 43.576 0 0 1-15.944-13.568c-5.428-7.52-8.296-16.304-8.296-25.412v-6.272c-37.596 18.44-78.644 18.884-116.5 1.248v5.024c0 9.108-2.872 17.9-8.3 25.412a43.608 43.608 0 0 1-15.94 13.568l-23.1 11.392-0.08 0.04-4.772 2.352zM662.896 378.804c-2.348 0-4.736-0.16-7.748-0.52a10 10 0 0 1-8.708-11.392c1.048-7.084 1.58-14.176 1.58-21.088V249.628c0-5.204 3.988-9.536 9.172-9.964a69.808 69.808 0 0 1 52.968 18.196 69.78 69.78 0 0 1 22.468 51.216c-0.004 38.448-31.284 69.728-69.732 69.728z m5.12-119.112v86.112c0 4.22-0.172 8.492-0.516 12.788 25.268-2.332 45.124-23.652 45.124-49.52a49.08 49.08 0 0 0-16.012-36.5 49.892 49.892 0 0 0-28.596-12.88zM358.408 378.804c-38.448 0-69.732-31.28-69.732-69.732s31.28-69.732 69.732-69.732c1.92 0 3.82 0.084 5.704 0.244a9.996 9.996 0 0 1 9.176 9.964V345.8c0 6.912 0.528 14.008 1.576 21.092a10.008 10.008 0 0 1-8.704 11.388c-3.016 0.364-5.408 0.524-7.752 0.524z m-5.124-119.2c-25.024 2.572-44.608 23.776-44.608 49.468 0 25.868 19.852 47.188 45.124 49.52a160.412 160.412 0 0 1-0.516-12.788v-86.2z" fill="#231F20" p-id="2766"></path><path d="M510.272 200.652a20.244 20.244 0 0 1-6.552-1.088L270.064 119.416c-8.28-2.84-13.632-10.336-13.632-19.088s5.352-16.248 13.636-19.088L503.724 1.092a20.296 20.296 0 0 1 13.1 0.004l233.66 80.144h-0.004c8.284 2.84 13.636 10.336 13.636 19.088s-5.352 16.248-13.636 19.088l-233.656 80.148a20.228 20.228 0 0 1-6.552 1.088z m0.06-180.64L276.556 100.16l233.66 80.484 233.776-80.148v-0.336L510.332 20.012zM510.648 519.02c-90.068 0-157.364-91.448-157.364-173.216V226.616a10 10 0 0 1 10-10h294.732a10 10 0 0 1 10 10v119.188c0 81.768-67.3 173.216-157.368 173.216zM373.284 236.616v109.188c0 87.692 72.52 153.216 137.364 153.216s137.368-65.524 137.368-153.216V236.616H373.284z" fill="#231F20" p-id="2767"></path><path d="M662.132 236.632l-38.432-0.012c-44.688-0.02-123.772-0.052-264.504-0.012h-0.012a31.92 31.92 0 0 1-22.72-9.408 31.908 31.908 0 0 1-9.416-22.728V131.82a9.992 9.992 0 0 1 13.248-9.46l169.924 58.284 3.36 9.46-3.248-9.46 170.676-58.544c3.06-1.04 6.428-0.552 9.06 1.324s4.188 4.908 4.188 8.136v72.936c-0.004 17.724-14.412 32.136-32.124 32.136z m-181.824-20.04c68.5 0 113.588 0.016 143.4 0.028l38.42 0.012a12.14 12.14 0 0 0 12.124-12.132V145.568l-157.428 54-0.016 0.004a20.384 20.384 0 0 1-13.068 0L347.048 145.824v58.652c0 3.244 1.26 6.288 3.556 8.58a12.06 12.06 0 0 0 8.584 3.556h0.004c46.868-0.016 86.916-0.02 121.116-0.02zM769.996 258.872h-40.688c-3.972 0-7.692-1.76-10.208-4.836s-3.504-7.068-2.72-10.956l7.444-37.228a14.32 14.32 0 0 1 14.016-11.492h23.62a14.332 14.332 0 0 1 14.016 11.488v0.004l7.448 37.248a13.144 13.144 0 0 1-2.732 10.944 13.12 13.12 0 0 1-10.196 4.828z m-34-11.876l-0.008 0.024 0.008-0.024z m1.62-8.124h24.076l-4.904-24.512h-14.268l-4.904 24.512z m23.848-24.512h0.04-0.04z m-5.592-4.584v0.012-0.012z m-12.432-0.02l-0.004 0.02 0.004-0.02z" fill="#231F20" p-id="2768"></path><path d="M328.372 267.504a9.988 9.988 0 0 1-9.932-11.144 311.888 311.888 0 0 1 9.688-49.168c1.232-4.352 5.304-7.2 9.756-7.276a10.008 10.008 0 0 1 9.56 7.544 12.104 12.104 0 0 0 11.744 9.152h0.028l4.092 0.008a10 10 0 0 1 9.98 10v22.932c0 2.796-1.168 5.46-3.228 7.356a9.868 9.868 0 0 1-7.596 2.608 50.152 50.152 0 0 0-29.048 6.624 10.008 10.008 0 0 1-5.044 1.364z m14.24-35.492c-0.668 3.192-1.28 6.4-1.844 9.624a68.924 68.924 0 0 1 12.516-2.1v-3.468a32.148 32.148 0 0 1-10.672-4.056zM692.14 267.12c-1.688 0-3.38-0.424-4.908-1.284a49.24 49.24 0 0 0-28.392-6.244 9.932 9.932 0 0 1-7.6-2.604 10.012 10.012 0 0 1-3.228-7.36v-22.996a10 10 0 0 1 10-10h4.116a12.08 12.08 0 0 0 11.536-8.416c1.348-4.204 5.156-6.908 9.72-6.948a10.012 10.012 0 0 1 9.44 7.324 313.636 313.636 0 0 1 9.248 47.376 9.992 9.992 0 0 1-9.932 11.152z m-24.124-27.512c3.968 0.292 7.896 0.924 11.752 1.896a294.304 294.304 0 0 0-1.732-9.06 31.864 31.864 0 0 1-10.02 3.652v3.512zM801.7 1024H222.296a35.944 35.944 0 0 1-26-11.196 35.94 35.94 0 0 1-9.736-26.584l18.84-338.264c1.68-30.084 22.432-55.236 51.644-62.584a7819.668 7819.668 0 0 1 54.888-13.824c27.88-6.936 39.416-9.808 57.448-15.712 3.632-1.192 7.26-2.42 10.876-3.696l17.228-8.492 0.064 0.128c1.26-0.78 2.508-1.4 3.496-1.888l19.64-9.68a23.156 23.156 0 0 0 8.556-7.336 23.284 23.284 0 0 0 4.512-13.696v-21.736a10.004 10.004 0 0 1 15.216-8.532c40.176 24.572 86.06 24.012 125.884-1.536a10.008 10.008 0 0 1 15.4 8.416v23.384c0 4.876 1.56 9.608 4.512 13.692a23.064 23.064 0 0 0 8.572 7.344l7.204 3.556-0.116 0.244 0.052 0.02 0.116-0.24c0.48 0.244 0.932 0.516 1.36 0.82 1.988 0.828 4.096 1.872 6.324 2.968l27.476 13.548c1.744 0.584 3.492 1.124 5.248 1.668l3.52 1.1c18.808 6.008 28.292 8.364 53.64 14.66 13.732 3.408 32.032 7.952 58.844 14.824 29.168 7.34 49.92 32.488 51.6 62.572l18.84 338.264c0.548 9.776-3.004 19.468-9.736 26.584S811.492 1024 801.7 1024z m-395.304-462.448l-0.068 0.032-17.756 8.752a10.34 10.34 0 0 1-1.084 0.456c-3.94 1.4-7.908 2.744-11.884 4.048-18.724 6.128-31.296 9.256-58.844 16.108-13.604 3.388-31 7.716-54.792 13.804a48.252 48.252 0 0 0-36.596 44.312l-18.84 338.26a15.648 15.648 0 0 0 4.292 11.732 15.636 15.636 0 0 0 11.472 4.94h579.404a15.628 15.628 0 0 0 11.472-4.94 15.648 15.648 0 0 0 4.296-11.736l-18.84-338.26a48.24 48.24 0 0 0-36.56-44.296 7071.1 7071.1 0 0 0-58.74-14.8c-25.812-6.412-35.468-8.808-54.908-15.016l-3.36-1.056a244.492 244.492 0 0 1-6.36-2.036 9.968 9.968 0 0 1-1.208-0.5l-19.828-9.776-15.9-7.84-0.084-0.04-7.2-3.552a43.468 43.468 0 0 1-15.94-13.572 43.152 43.152 0 0 1-8.3-25.408v-6.272c-37.596 18.44-78.644 18.884-116.5 1.248v5.024c0 9.108-2.872 17.9-8.3 25.412a43.608 43.608 0 0 1-15.94 13.568c-0.472 0.244-22.032 10.872-23.104 11.404z" fill="#231F20" p-id="2769"></path><path d="M591.132 1024h-158.264a10 10 0 0 1-10-10v-242.48a10 10 0 0 1 17.072-7.072L512 836.512l72.064-72.064a10.008 10.008 0 0 1 17.072 7.072v242.48a10.004 10.004 0 0 1-10.004 10z m-148.264-20h138.264v-208.34l-62.064 62.064a9.992 9.992 0 0 1-14.14 0l-62.064-62.064V1004z" fill="#231F20" p-id="2770"></path><path d="M539.864 1024h-55.728a10 10 0 0 1-10-10v-191.212a10 10 0 0 1 17.072-7.072l20.792 20.792 20.792-20.792a10.008 10.008 0 0 1 17.072 7.072V1014a10 10 0 0 1-10 10z m-45.728-20h35.728v-157.072l-10.792 10.792a9.992 9.992 0 0 1-14.14 0l-10.792-10.792V1004z" fill="#231F20" p-id="2771"></path><path d="M512 860.652c-2.56 0-5.116-0.976-7.072-2.928L250.04 602.836a9.992 9.992 0 0 1 4.224-16.656l0.628-0.192a38.16 38.16 0 0 1 2.156-0.62 7829.192 7829.192 0 0 1 54.884-13.824c27.88-6.936 39.416-9.808 57.448-15.712 3.636-1.192 7.264-2.42 10.876-3.696l17.228-8.492 0.064 0.128c1.26-0.78 2.508-1.4 3.496-1.888l19.64-9.68a23.156 23.156 0 0 0 8.556-7.336 23.284 23.284 0 0 0 4.512-13.696v-21.736a10.004 10.004 0 0 1 15.216-8.532c40.176 24.572 86.06 24.012 125.884-1.536a10.008 10.008 0 0 1 15.4 8.416v23.384c0 4.876 1.56 9.612 4.508 13.696a23.164 23.164 0 0 0 8.58 7.344l7.2 3.552-0.116 0.244 0.052 0.02 0.116-0.24c0.48 0.244 0.932 0.516 1.36 0.82 1.988 0.828 4.096 1.872 6.324 2.968l27.476 13.548c1.744 0.584 3.492 1.124 5.248 1.668l3.52 1.1c18.816 6.008 28.304 8.364 53.664 14.664 13.732 3.412 32.024 7.952 58.82 14.82 0.676 0.172 1.376 0.384 2.076 0.596l0.652 0.2a10 10 0 0 1 4.236 16.66l-254.888 254.888c-1.964 1.96-4.52 2.936-7.08 2.936z m-235.468-259.608L512 836.512l235.472-235.472c-19.06-4.848-33.072-8.328-44.116-11.072-25.824-6.416-35.488-8.812-54.928-15.02l-3.36-1.056c-2.124-0.66-4.248-1.32-6.36-2.036a9.968 9.968 0 0 1-1.208-0.5l-19.828-9.776-15.9-7.84-0.084-0.04-7.2-3.552a43.576 43.576 0 0 1-15.944-13.568c-5.428-7.52-8.296-16.304-8.296-25.412v-6.272c-37.596 18.44-78.644 18.884-116.5 1.248v5.024c0 9.108-2.872 17.9-8.3 25.412a43.608 43.608 0 0 1-15.94 13.568c-0.48 0.236-21.872 10.78-23.1 11.392l-0.08 0.04-17.756 8.752a10.34 10.34 0 0 1-1.084 0.456c-3.94 1.4-7.908 2.744-11.888 4.048-18.72 6.128-31.292 9.256-58.84 16.108-10.664 2.66-23.656 5.892-40.228 10.1z" fill="#231F20" p-id="2772"></path><path d="M512 772.184a10.016 10.016 0 0 1-7.072-2.928l-184.272-184.272a9.996 9.996 0 0 1 4.636-16.772c18.552-4.652 29.32-7.548 44.088-12.38 3.64-1.192 7.264-2.42 10.876-3.696l17.228-8.492 0.08 0.156c1.316-0.848 2.588-1.472 3.48-1.916l19.64-9.68a23.156 23.156 0 0 0 8.556-7.336 23.284 23.284 0 0 0 4.512-13.696v-21.736a10.004 10.004 0 0 1 15.216-8.532c40.176 24.572 86.06 24.012 125.884-1.536a10.008 10.008 0 0 1 15.4 8.416v23.384c0 4.876 1.56 9.612 4.508 13.696a23.164 23.164 0 0 0 8.58 7.344l7.2 3.552-0.116 0.244 0.052 0.02 0.116-0.24c0.48 0.244 0.932 0.516 1.36 0.82 1.988 0.828 4.096 1.872 6.324 2.968l27.476 13.548c1.744 0.584 3.492 1.124 5.248 1.668l3.52 1.1c16.592 5.3 26.208 7.82 44.188 12.304a10 10 0 0 1 4.648 16.776l-184.276 184.28a10.024 10.024 0 0 1-7.08 2.936zM347.196 583.24L512 748.044l164.78-164.788a541.06 541.06 0 0 1-28.356-8.304l-3.36-1.056c-2.124-0.66-4.248-1.32-6.36-2.036a9.968 9.968 0 0 1-1.208-0.5l-19.828-9.776c-0.664-0.328-14.92-7.36-15.904-7.84l-0.08-0.04-7.2-3.552a43.576 43.576 0 0 1-15.944-13.568c-5.428-7.52-8.296-16.304-8.296-25.412v-6.272c-37.596 18.44-78.644 18.884-116.5 1.248v5.024c0 9.108-2.872 17.9-8.3 25.412a43.608 43.608 0 0 1-15.94 13.568c-0.48 0.236-21.884 10.784-23.1 11.392l-0.08 0.04-17.756 8.752a10.34 10.34 0 0 1-1.084 0.456c-3.94 1.4-7.908 2.748-11.888 4.048a491.52 491.52 0 0 1-28.4 8.4z" fill="#231F20" p-id="2773"></path><path d="M555.664 647.96c-2.644 0-5.24-1.052-7.152-3.012l-31.08-31.8a10 10 0 0 1 0.016-13.992l67.912-69.192a10 10 0 0 1 13.548-0.672c1.42 1.192 2.916 2.172 4.436 2.924l7.192 3.548-0.116 0.244 0.052 0.02 0.116-0.24c0.48 0.244 0.932 0.516 1.36 0.82 1.988 0.828 4.096 1.872 6.324 2.968l21.332 10.52a9.996 9.996 0 0 1 4.98 12.372 139.76 139.76 0 0 1-32.868 51.652 139.708 139.708 0 0 1-52.724 33.268 9.992 9.992 0 0 1-3.328 0.572z m-17.08-41.784l19.648 20.104a120.116 120.116 0 0 0 39.344-26.3 119.984 119.984 0 0 0 24.864-36.048l-4.764-2.352a33536.8 33536.8 0 0 0-15.9-7.84l-0.084-0.04-7.2-3.552a22.128 22.128 0 0 1-0.616-0.312l-55.292 56.34zM468.504 648.024c-1.108 0-2.232-0.184-3.312-0.564a139.756 139.756 0 0 1-52.908-33.34 139.76 139.76 0 0 1-32.868-51.656 10 10 0 0 1 4.98-12.372l13.084-6.448 0.08 0.156c1.32-0.848 2.588-1.472 3.48-1.916l19.628-9.672a22.516 22.516 0 0 0 4.548-3.012 10 10 0 0 1 13.588 0.636l68.016 69.316a10 10 0 0 1 0.012 13.996l-31.18 31.864a9.984 9.984 0 0 1-7.148 3.012z m-66.94-84.096a120.052 120.052 0 0 0 24.864 36.052 119.96 119.96 0 0 0 39.508 26.372l19.752-20.184-55.368-56.424a51.4 51.4 0 0 1-0.824 0.42c-0.468 0.232-22.208 10.944-23.128 11.404l-0.04 0.02-4.764 2.34z m23.52-22.744h0.04-0.04z" fill="#231F20" p-id="2774"></path><path d="M511.996 655.408a141.44 141.44 0 0 1-46.804-7.944 9.992 9.992 0 0 1-3.836-16.428l31.156-31.84a10.008 10.008 0 0 1 9.488-2.732h20.86a9.968 9.968 0 0 1 9 2.84l30.956 31.672c2.388 2.44 3.364 5.928 2.584 9.256a9.984 9.984 0 0 1-6.416 7.16 141.308 141.308 0 0 1-46.988 8.016z m-24.512-22.488c16.22 3.336 33.012 3.316 49.232-0.044l-16.052-16.416h-17.072l-16.108 16.46z" fill="#231F20" p-id="2775"></path><path d="M524.236 616.46h-23.744c-1.08 0-2.152-0.176-3.176-0.52l-0.84-0.276a10.012 10.012 0 0 1-4.532-3.108l-67.416-68.708a10 10 0 0 1 0.684-14.64c1.52-1.284 2.872-2.744 4.024-4.34a23.272 23.272 0 0 0 4.512-13.692v-21.736a10.004 10.004 0 0 1 15.216-8.532c40.176 24.572 86.06 24.012 125.884-1.536a10.008 10.008 0 0 1 15.4 8.416v23.384c0 4.876 1.56 9.612 4.508 13.696 1.16 1.6 2.556 3.088 4.148 4.42a10.008 10.008 0 0 1 0.728 14.68l-66.724 67.984a9.744 9.744 0 0 1-4.7 3.696l-0.52 0.192a9.864 9.864 0 0 1-3.452 0.62z m-20.06-20h15.916l58.584-59.692-0.132-0.188c-5.428-7.516-8.296-16.3-8.296-25.408v-6.272c-37.596 18.44-78.644 18.884-116.5 1.248v5.024c0 9.108-2.872 17.9-8.3 25.412l-0.012 0.012 58.74 59.864z" fill="#231F20" p-id="2776"></path></svg>